# xmcd
#
# Track frame offsets: 
#        150
#        20326
#        38238
#        56051
#        76680
#        97162
#        120651
#        141482
#        155537
#        174686
#        186291
#        208572
#        224505
#        236872
#        246800
#        262514
#        282870
#        306166
#        324567
#
# Disc length: 4519 seconds
#
# Revision: 3
# Processed by: cddbd v1.5.2PL0 Copyright (c) Steve Scherf et al.
# Submitted via: ExactAudioCopy v1.1
#
DISCID=1511a513
DTITLE=Various Artist - Soul Xmas
DYEAR=2007
DGENRE=Weihnachtsmusik
TTITLE0=Ray Charles - Christmas time
TTITLE1=Gladys Knight - Do you hear what I hear?
TTITLE2=Isaac Hayes - The mistletoe and me
TTITLE3=Shakatak - Christmas time again
TTITLE4=Al Green - The first Nowell
TTITLE5=Martha Reeves - O Holy Night (Minuit, Chrétiens)
TTITLE6=The Whispers - Happy holidays to you
TTITLE7=The Manhattans - It's that time of the year
TTITLE8=Roberta Flack - What child is this?
TTITLE9=Lou Rawls - Merry Christmas, baby
TTITLE10=The O'Jays - The Christmas song
TTITLE11=Fats Domino - Silver bells
TTITLE12=Gladys Knight - Silent night (Stille Nacht, heilige Nacht)
TTITLE13=Aretha Franklin - Winter wonderland
TTITLE14=Joe Tex - I'll make every day Christmas (for my woman)
TTITLE15=Isaac Hayes - So glad you were born
TTITLE16=Bobby Womack - Christmas song
TTITLE17=The Stylistics - Have yourself a merry little Christmas
TTITLE18=Al Green - I'll be home for Christmas
EXTD=JAM FM
EXTT0=
EXTT1=
EXTT2=
EXTT3=
EXTT4=
EXTT5=
EXTT6=
EXTT7=
EXTT8=
EXTT9=
EXTT10=
EXTT11=
EXTT12=
EXTT13=
EXTT14=
EXTT15=
EXTT16=
EXTT17=
EXTT18=
PLAYORDER=
